<mxfile host="Electron" agent="Mozilla/5.0 (X11; Linux x86_64) AppleWebKit/537.36 (KHTML, like Gecko) draw.io/24.7.17 Chrome/128.0.6613.178 Electron/32.2.0 Safari/537.36" version="24.7.17">
  <diagram name="Page-1" id="tagKLCpSExRpWlTvb1lb">
    <mxGraphModel dx="989" dy="-474" grid="1" gridSize="10" guides="1" tooltips="1" connect="1" arrows="1" fold="1" page="1" pageScale="1" pageWidth="850" pageHeight="1100" math="0" shadow="0">
      <root>
        <mxCell id="0" />
        <mxCell id="1" parent="0" />
        <mxCell id="mbO1rgo6cnUE4w9JYglO-5" value="" style="shape=image;verticalLabelPosition=bottom;labelBackgroundColor=default;verticalAlign=top;aspect=fixed;imageAspect=0;image=data:image/svg+xml,PHN2ZyB4bWxuczp4bGluaz0iaHR0cDovL3d3dy53My5vcmcvMTk5OS94bGluayIgeG1sbnM9Imh0dHA6Ly93d3cudzMub3JnLzIwMDAvc3ZnIiB4bWw6c3BhY2U9InByZXNlcnZlIiB2aWV3Qm94PSIwIDAgNTEyIDUxMiIgaWQ9Il94MzJfIiB2ZXJzaW9uPSIxLjEiIHdpZHRoPSI4MDBweCIgaGVpZ2h0PSI4MDBweCI+JiN4YTs8c3R5bGUgdHlwZT0idGV4dC9jc3MiPiYjeGE7CS5zdDB7ZmlsbDojMDAwMDAwO30mI3hhOzwvc3R5bGU+JiN4YTs8Zz4mI3hhOwk8cGF0aCBkPSJNMjQzLjc0NCw4MC4zOTRjMTkuOC0xNC41NzMsMjQuMDM1LTQyLjQ2MSw5LjQ2Mi02Mi4yNjljLTE0LjU4OC0xOS43OTItNDIuNDY4LTI0LjAzNS02Mi4yNi05LjQ1NCYjMTA7JiM5OyYjOTtjLTE5LjgwOCwxNC41ODEtMjQuMDQzLDQyLjQ2LTkuNDcsNjIuMjYxQzE5Ni4wNjQsOTAuNzM5LDIyMy45MzYsOTQuOTc0LDI0My43NDQsODAuMzk0eiIgY2xhc3M9InN0MCIvPiYjeGE7CTxwYXRoIGQ9Ik0xNTYuMjI5LDE1MS4zODJsMi45NTQtNy4wNzljMC43MjctMS43MzQtMC4wNzgtMy43MTItMS43ODItNC40MjNsLTU3Ljg3Ny0yNC4wOTgmIzEwOyYjOTsmIzk7Yy0xLjcwMy0wLjcxMS0zLjY3MiwwLjEyNS00LjM5MSwxLjg3NWwtMi45NDYsNy4wNjRjLTAuNzE4LDEuNzM1LDAuMDcsMy43MiwxLjc3NCw0LjQzbDU3Ljg3NywyNC4wOSYjMTA7JiM5OyYjOTtDMTUzLjU1LDE1My45NjEsMTU1LjUxMSwxNTMuMTEsMTU2LjIyOSwxNTEuMzgyeiIgY2xhc3M9InN0MCIvPiYjeGE7CTxwYXRoIGQ9Ik00MTQuOTk5LDI0MS41MDdjNi43NjctNi43NTksNi43NzUtMTcuNzM3LDAuMDA4LTI0LjUwNGwtNjAuMzY5LTY1Ljk2NGwtNDUuMjg5LTQ5LjQ4NSYjMTA7JiM5OyYjOTtjLTAuODc1LTAuODc2LTEuODQ0LTEuNTg2LTIuODA1LTIuMjg5Yy0xOS4yNjEtMjAuOC01Ni40MTUtMTAuMzMtNjguODQ3LDE0Ljg1NGwtMzEuMjcxLDYzLjM5NGwtNjMuNTM0LTIzLjU4MiYjMTA7JiM5OyYjOTtjLTguODIyLTMuNzE5LTE4Ljk4NywwLjQxNS0yMi43MTQsOS4yMzZjLTMuNzEyLDguODE0LDAuNDE0LDE4Ljk3Miw5LjIzNiwyMi42OTFsNzkuNzk0LDM3Ljg4MiYjMTA7JiM5OyYjOTtjMTIuNTQxLDUuMzkxLDIyLjQ5Ni0xLjM0NCwyNi4wMi03LjM3N2MwLjIwMy0wLjMzNiw1Ljk5My0xMy43MzYsNS45OTMtMTMuNzM2bDEzLjMzOCw3OC45NTFMMjA4LjU5LDQ4OC4wNzEmIzEwOyYjOTsmIzk7Yy0yLjgxMyw5LjQ5NCwzLjYyNSwxOS43NzcsMTQuMzkzLDIyLjk4YzEwLjc2NywzLjE4OCwyMS43ODQtMS45MjIsMjQuNTk4LTExLjQxNmw0NC44MjgtMTIzLjM4bDQuODIyLDIwLjc4NSYjMTA7JiM5OyYjOTtjMC40MDYsMi4xNDgsMS4wNjIsNC4xODgsMS45MTQsNi4xMWMwLjc2NiwxLjk1MywxLjczNCwzLjg1MiwyLjk3Nyw1LjY2NWw3Mi4zMzMsOTIuMjE4YzYuMzY4LDkuMjQzLDE5LjAyNiwxMS41OCwyOC4yNyw1LjIwMyYjMTA7JiM5OyYjOTtjOS4yNTEtNi4zNiwxMS41ODgtMTkuMDE4LDUuMjE5LTI4LjI3bC01Ni43OTgtOTUuMTk1TDMyNC45NTMsMTgxLjQ1bDY1LjU0Miw2MC4wNTYmIzEwOyYjOTsmIzk7QzM5Ny4yNjEsMjQ4LjI3NCw0MDguMjMyLDI0OC4yNzQsNDE0Ljk5OSwyNDEuNTA3eiIgY2xhc3M9InN0MCIvPiYjeGE7PC9nPiYjeGE7PC9zdmc+;direction=east;imageBackground=default;flipH=1;" parent="1" vertex="1">
          <mxGeometry x="54" y="1490" width="260" height="260" as="geometry" />
        </mxCell>
        <mxCell id="mbO1rgo6cnUE4w9JYglO-1" value="" style="shape=image;verticalLabelPosition=bottom;labelBackgroundColor=default;verticalAlign=top;aspect=fixed;imageAspect=0;image=data:image/svg+xml,PHN2ZyB4bWxucz0iaHR0cDovL3d3dy53My5vcmcvMjAwMC9zdmciIHZlcnNpb249IjEuMSIgdmlld0JveD0iMCAwIDEwMjQgMTAyNCIgc3R5bGU9IndpZHRoOiAxZW07IGhlaWdodDogMWVtO3ZlcnRpY2FsLWFsaWduOiBtaWRkbGU7ZmlsbDogY3VycmVudENvbG9yO292ZXJmbG93OiBoaWRkZW47IiBjbGFzcz0ic3ZnLWljb24iPjxwYXRoIGZpbGw9IiMxQzIwMjEiIGQ9Ik03MDMuMjQ3MzYgNDU5Ljg1NzkyYy0xNC4xNjE5MiAwLTI3LjY1ODI0IDIuNzM5Mi00MC4xNTEwNCA3LjUyMTI4bC01MC40MDEyOC05OS42NzEwNGgzOS4zNTIzMnYtMjAuNDhoLTcyLjY0NzY4bDIwLjcxMDQgNDAuOTZINDIyLjcwNzJsLTEwLjM0MjQtMjAuNDhoMzQuODgyNTZ2LTIwLjQ4SDM3OS4wODQ4bDIzLjAyOTc2IDQ1LjYwODk2Yy0wLjExNzc2IDAuMTY4OTYtMC4yODE2IDAuMzEyMzItMC4zNzg4OCAwLjQ5MTUybC00My40MTc2IDc1LjU4MTQ0YTExMi4wMzU4NCAxMTIuMDM1ODQgMCAwIDAtNDQuMTkwNzItOS4wNTIxNmMtNjIuMTEwNzIgMC0xMTIuNjQgNTAuNTI5MjgtMTEyLjY0IDExMi42NTAyNCAwIDYyLjExMDcyIDUwLjUyOTI4IDExMi42NCAxMTIuNjQgMTEyLjY0IDU4LjY0OTYgMCAxMDYuOTMxMi00NS4wODE2IDExMi4xMTc3Ni0xMDIuNGg4My44Mjk3NmExMC4yNCAxMC4yNCAwIDAgMCA4Ljg1NzYtNS4wOTk1Mmw5NC41NjEyOC0xNjIuOTc0NzIgMzEuMjMyIDYxLjc2MjU2Yy0zMi4zODkxMiAxOS43OTkwNC01NC4xMTg0IDU1LjQwMzUyLTU0LjExODQgOTYuMDcxNjggMCA2Mi4xMjA5NiA1MC41MjkyOCAxMTIuNjUwMjQgMTEyLjY0IDExMi42NTAyNHMxMTIuNjQtNTAuNTI5MjggMTEyLjY0LTExMi42NTAyNC01MC41MzQ0LTExMi42NTAyNC0xMTIuNjQtMTEyLjY1MDI0eiBtLTI5MC4xMjk5Mi00NS4yMzAwOGw3NC41NTIzMiAxNDcuNjQwMzJINDI2LjI0NTEyYy0zLjE1OTA0LTM0Ljg3MjMyLTIyLjI0MTI4LTY1LjE4MjcyLTQ5LjkyLTgzLjU5NDI0bDM2Ljc5MjMyLTY0LjA0NjA4eiBtLTcuNDM0MjQgMTQ3LjY0MDMySDMyOC4yOTQ0bDM3LjgxMTItNjUuODEyNDhjMjEuNTcwNTYgMTQuODAxOTIgMzYuNTQxNDQgMzguNTIyODggMzkuNTc3NiA2NS44MTI0OHogbS05MS41NTU4NCAxMDIuNGMtNTAuODIxMTIgMC05Mi4xNi00MS4zMzg4OC05Mi4xNi05Mi4xNnM0MS4zMzg4OC05Mi4xNzAyNCA5Mi4xNi05Mi4xNzAyNGMxMS45NzA1NiAwIDIzLjM2NzY4IDIuMzYwMzIgMzMuODY4OCA2LjUyOGwtNDYuMjY5NDQgODAuNTQyNzJhMTAuMjQgMTAuMjQgMCAwIDAgOC44NzgwOCAxNS4zMzk1Mmg5NS4wNzg0Yy01LjEyIDQ2LjAxMzQ0LTQ0LjIwNjA4IDgxLjkyLTkxLjU1NTg0IDgxLjkyeiBtMTkzLjQ4OTkyLTEwOC4zMjg5Nkw0MzMuMDQ0NDggNDA4LjY2ODE2aDE2MC4yNjExMkw1MDcuNjE3MjggNTU2LjMzOTJ6IG0xOTUuNjMwMDggMTA4LjMzOTJjLTUwLjgyMTEyIDAtOTIuMTYtNDEuMzQ5MTItOTIuMTYtOTIuMTcwMjQgMC0zMi42OTEyIDE3LjE2MjI0LTYxLjM5MzkyIDQyLjkwMDQ4LTc3Ljc2MjU2bDQzLjM2MTI4IDg1Ljc2IDE4LjI3ODQtOS4yNDE2LTQzLjIyODE2LTg1LjUwNGE5MS40NzkwNCA5MS40NzkwNCAwIDAgMSAzMC44NDgtNS40MzIzMmM1MC44MjExMiAwIDkyLjE2IDQxLjM1NDI0IDkyLjE2IDkyLjE3MDI0cy00MS4zNDQgOTIuMTgwNDgtOTIuMTYgOTIuMTgwNDh6Ii8+PC9zdmc+;strokeColor=#CDFF59;clipPath=inset(32% 19% 31% 18%);" parent="1" vertex="1">
          <mxGeometry x="193" y="1568" width="332.03" height="195" as="geometry" />
        </mxCell>
        <mxCell id="mbO1rgo6cnUE4w9JYglO-2" value="" style="shape=image;verticalLabelPosition=bottom;labelBackgroundColor=default;verticalAlign=top;aspect=fixed;imageAspect=0;image=data:image/svg+xml,PHN2ZyB4bWxucz0iaHR0cDovL3d3dy53My5vcmcvMjAwMC9zdmciIHZpZXdCb3g9IjAgMCAyNCAyNCIgaGVpZ2h0PSI4MDBweCIgd2lkdGg9IjgwMHB4IiBmaWxsPSIjMDAwMDAwIj4mI3hhOzxwYXRoIGQ9Ik02LjYyMDEyIDE2LjQ0MTRWMThINS40NjI4OVYxMy43MTY4SDYuODY2MjFDOC4wMzAyNyAxMy43MTY4IDguNjEyMyAxNC4xMzg3IDguNjEyMyAxNC45ODI0QzguNjEyMyAxNS40Nzg1IDguMzcwMTIgMTUuODYyMyA3Ljg4NTc0IDE2LjEzMzhMOS4xMzM3OSAxOEg3LjgyMTI5TDYuOTEzMDkgMTYuNDQxNEg2LjYyMDEyWk02LjYyMDEyIDE1LjU3MTNINi44MzY5MUM3LjI0MTIxIDE1LjU3MTMgNy40NDMzNiAxNS4zOTI2IDcuNDQzMzYgMTUuMDM1MkM3LjQ0MzM2IDE0Ljc0MDIgNy4yNDUxMiAxNC41OTI4IDYuODQ4NjMgMTQuNTkyOEg2LjYyMDEyVjE1LjU3MTNaIi8+JiN4YTs8cGF0aCBkPSJNMTAuNjYzMSAxOEg5LjUyMzQ0VjEzLjcxNjhIMTIuMDU0N1YxNC42NDU1SDEwLjY2MzFWMTUuNDYyOUgxMS45NDYzVjE2LjM5MTZIMTAuNjYzMVYxOFoiLz4mI3hhOzxwYXRoIGQ9Ik0xMi43NTc4IDE4VjEzLjcxNjhIMTMuOTIwOVYxOEgxMi43NTc4WiIvPiYjeGE7PHBhdGggZD0iTTE4LjQ4NTQgMTUuNzY3NkMxOC40ODU0IDE2LjQ4MjQgMTguMjg4MSAxNy4wMzMyIDE3Ljg5MzYgMTcuNDE5OUMxNy41MDEgMTcuODA2NiAxNi45NDgyIDE4IDE2LjIzNTQgMThIMTQuODQ5NlYxMy43MTY4SDE2LjMzMkMxNy4wMTk1IDEzLjcxNjggMTcuNTQ5OCAxMy44OTI2IDE3LjkyMjkgMTQuMjQ0MUMxOC4yOTc5IDE0LjU5NTcgMTguNDg1NCAxNS4xMDM1IDE4LjQ4NTQgMTUuNzY3NlpNMTcuMjg0MiAxNS44MDg2QzE3LjI4NDIgMTUuNDE2IDE3LjIwNjEgMTUuMTI1IDE3LjA0OTggMTQuOTM1NUMxNi44OTU1IDE0Ljc0NjEgMTYuNjYwMiAxNC42NTE0IDE2LjM0MzggMTQuNjUxNEgxNi4wMDY4VjE3LjA1MDhIMTYuMjY0NkMxNi42MTYyIDE3LjA1MDggMTYuODc0IDE2Ljk0OTIgMTcuMDM4MSAxNi43NDYxQzE3LjIwMjEgMTYuNTQxIDE3LjI4NDIgMTYuMjI4NSAxNy4yODQyIDE1LjgwODZaIi8+JiN4YTs8cGF0aCBkPSJNMTcgOUMxNyAxMC4xMDQ2IDE2LjEwNDYgMTEgMTUgMTFDMTMuODk1NCAxMSAxMyAxMC4xMDQ2IDEzIDlDMTMgNy44OTU0MyAxMy44OTU0IDcgMTUgN0MxNi4xMDQ2IDcgMTcgNy44OTU0MyAxNyA5WiIvPiYjeGE7PHBhdGggZD0iTTEwLjA1ODggNEw5IDJINEMyLjg5NTQzIDIgMiAyLjg5NTQzIDIgNFYyMEMyIDIxLjEwNDYgMi44OTU0MyAyMiA0IDIySDIwQzIxLjEwNDYgMjIgMjIgMjEuMTA0NiAyMiAyMFYxNUwyMCAxMy45NDEyVjIwSDRWNEgxMC4wNTg4WiIvPiYjeGE7PHBhdGggZD0iTTIxLjk0NjkgMTIuOTY5OEMyMi42MTY5IDExLjc5OTkgMjIuOTk5OCAxMC40NDQ3IDIyLjk5OTggOUMyMi45OTk4IDQuNTgxNzIgMTkuNDE4MSAxIDE0Ljk5OTggMUMxMy41NTUxIDEgMTIuMTk5OSAxLjM4Mjk1IDExLjAzIDIuMDUyODdMMTIuMDIyNSAzLjc4OTY1QzEyLjg5OTggMy4yODcyMSAxMy45MTYzIDMgMTQuOTk5OCAzQzE4LjMxMzUgMyAyMC45OTk4IDUuNjg2MjkgMjAuOTk5OCA5QzIwLjk5OTggMTAuMDgzNSAyMC43MTI2IDExLjEgMjAuMjEwMiAxMS45NzczTDIxLjk0NjkgMTIuOTY5OFoiLz4mI3hhOzxwYXRoIGQ9Ik0xOS4zNDE4IDExLjQ4MTFDMTkuNzYwNSAxMC43NSAxOS45OTk4IDkuOTAyOTMgMTkuOTk5OCA5QzE5Ljk5OTggNi4yMzg1OCAxNy43NjEyIDQgMTQuOTk5OCA0QzE0LjA5NjkgNCAxMy4yNDk4IDQuMjM5MzQgMTIuNTE4NyA0LjY1ODA0TDEzLjUxMTEgNi4zOTQ4M0MxMy45NDk4IDYuMTQzNjEgMTQuNDU4IDYgMTQuOTk5OCA2QzE2LjY1NjcgNiAxNy45OTk4IDcuMzQzMTUgMTcuOTk5OCA5QzE3Ljk5OTggOS41NDE3NiAxNy44NTYyIDEwLjA1IDE3LjYwNSAxMC40ODg3TDE5LjM0MTggMTEuNDgxMVoiLz4mI3hhOzwvc3ZnPg==;" parent="1" vertex="1">
          <mxGeometry x="278" y="1586" width="20.5" height="20.5" as="geometry" />
        </mxCell>
        <mxCell id="e19baQRMNzi_IFpjuflH-1" value="" style="shape=image;verticalLabelPosition=bottom;labelBackgroundColor=default;verticalAlign=top;aspect=fixed;imageAspect=0;image=data:image/svg+xml,PHN2ZyB4bWxuczp4bGluaz0iaHR0cDovL3d3dy53My5vcmcvMTk5OS94bGluayIgeG1sbnM9Imh0dHA6Ly93d3cudzMub3JnLzIwMDAvc3ZnIiB4bWw6c3BhY2U9InByZXNlcnZlIiB2aWV3Qm94PSIwIDAgMzY1Ljg5MiAzNjUuODkyIiBpZD0iQ2FwYV8xIiB2ZXJzaW9uPSIxLjEiIHdpZHRoPSI4MDBweCIgaGVpZ2h0PSI4MDBweCIgZmlsbD0iIzAwMDAwMCI+JiN4YTs8Zz4mI3hhOwk8Y2lyY2xlIHI9IjQxLjQ5NCIgY3k9IjI4Ni42ODEiIGN4PSIxODIuOTQ1Ii8+JiN4YTsJPHBhdGggZD0iTTE4Mi45NDYsMTc2LjAyOWMtMzUuNjU4LDAtNjkuMzM3LDE3LjM0NS05MC4wOSw0Ni4zOThjLTUuOTIxLDguMjg4LTQuMDAxLDE5LjgwNiw0LjI4NiwyNS43MjYmIzEwOyYjOTsmIzk7YzMuMjQ5LDIuMzIxLDYuOTk0LDMuNDM4LDEwLjcwNCwzLjQzOGM1Ljc1NCwwLDExLjQyMy0yLjY4NiwxNS4wMjEtNy43MjRjMTMuODQ2LTE5LjM4MywzNi4zMDUtMzAuOTU0LDYwLjA3OC0zMC45NTQmIzEwOyYjOTsmIzk7YzIzLjc3NSwwLDQ2LjIzMywxMS41NzEsNjAuMDc3LDMwLjk1M2M1LjkxOSw4LjI4NiwxNy40MzcsMTAuMjA5LDI1LjcyNiw0LjI4OGM4LjI4OC01LjkyLDEwLjIwOC0xNy40MzgsNC4yODgtMjUuNzI2JiMxMDsmIzk7JiM5O0MyNTIuMjg1LDE5My4zNzMsMjE4LjYwNiwxNzYuMDI5LDE4Mi45NDYsMTc2LjAyOXoiLz4mI3hhOwk8cGF0aCBkPSJNMTgyLjk0NiwxMDYuODczYy01MC45MzgsMC05OS42OTQsMjEuNzQ5LTEzMy43Nyw1OS42N2MtNi44MDcsNy41NzYtNi4xODUsMTkuMjM2LDEuMzkyLDI2LjA0NCYjMTA7JiM5OyYjOTtjMy41MjMsMy4xNjYsNy45MjksNC43MjUsMTIuMzIsNC43MjVjNS4wNTEtMC4wMDEsMTAuMDgyLTIuMDYzLDEzLjcyMy02LjExNmMyNy4wOTEtMzAuMTQ4LDY1Ljg0OS00Ny40MzksMTA2LjMzNi00Ny40MzkmIzEwOyYjOTsmIzk7czc5LjI0NiwxNy4yOTEsMTA2LjMzOCw0Ny40MzhjNi44MDgsNy41NzYsMTguNDY4LDguMTk4LDI2LjA0MywxLjM5MWM3LjU3Ni02LjgwOCw4LjE5OC0xOC40NjgsMS4zOTEtMjYuMDQzJiMxMDsmIzk7JiM5O0MyODIuNjQxLDEyOC42MjEsMjMzLjg4MywxMDYuODczLDE4Mi45NDYsMTA2Ljg3M3oiLz4mI3hhOwk8cGF0aCBkPSJNMzYwLjYxMSwxMTIuMjkzYy00Ny4yMDktNDguMDkyLTExMC4zMDUtNzQuNTc3LTE3Ny42NjUtNzQuNTc3Yy02Ny4zNTcsMC0xMzAuNDUzLDI2LjQ4NS0xNzcuNjY0LDc0LjU3OSYjMTA7JiM5OyYjOTtjLTcuMTM1LDcuMjY5LTcuMDI3LDE4Ljk0NCwwLjI0MSwyNi4wNzljMy41OSwzLjUyNCw4LjI1NSw1LjI4MiwxMi45MTgsNS4yODFjNC43NzYsMCw5LjU1MS0xLjg0NSwxMy4xNjEtNS41MjImIzEwOyYjOTsmIzk7YzQwLjIyLTQwLjk3MSw5My45NjgtNjMuNTM0LDE1MS4zNDQtNjMuNTM0YzU3LjM3OSwwLDExMS4xMjcsMjIuNTYzLDE1MS4zNDMsNjMuNTMyYzcuMTM2LDcuMjY5LDE4LjgxMiw3LjM3NiwyNi4wOCwwLjI0MiYjMTA7JiM5OyYjOTtDMzY3LjYzNywxMzEuMjM4LDM2Ny43NDUsMTE5LjU2MiwzNjAuNjExLDExMi4yOTN6Ii8+JiN4YTs8L2c+JiN4YTs8L3N2Zz4=;rotation=-218;" vertex="1" parent="1">
          <mxGeometry x="251" y="1556" width="32.75" height="32.75" as="geometry" />
        </mxCell>
      </root>
    </mxGraphModel>
  </diagram>
</mxfile>
